<svg width="187" height="80" viewBox="0 0 187 80" fill="none" xmlns="http://www.w3.org/2000/svg">
<path d="M41.4076 27.5966C41.787 27.6597 42.1032 27.786 42.4827 27.8491C47.7319 28.8594 51.4001 32.9004 52.0325 38.2674C52.6649 44.1396 48.9336 49.5697 43.2416 50.9588C42.2297 51.2114 41.2178 51.3377 40.2059 51.3377C35.4626 51.4008 30.7826 51.3377 26.0393 51.4008C26.0393 50.2011 26.0393 49.0646 26.0393 47.8649C27.2409 44.771 28.3161 44.0764 31.668 44.0764C34.5772 44.0764 37.4232 44.0764 40.3324 44.0764C42.7357 44.0764 44.6962 42.3085 44.886 40.0354C45.0757 37.4466 43.4946 35.3629 41.0913 34.9841C38.6881 34.6052 36.4745 36.1206 35.8421 38.4569C35.7789 38.7094 35.7156 38.962 35.6524 39.2146C35.5259 39.1514 35.4626 39.1514 35.3994 39.0883C33.6918 37.3835 31.9842 35.6786 30.2766 34.037C29.9604 33.7213 30.0869 33.4687 30.2766 33.153C31.921 30.6273 34.1978 28.8594 37.107 28.1017C37.7394 27.9123 38.3718 27.786 39.0043 27.6597C39.8897 27.5966 40.6486 27.5966 41.4076 27.5966Z" fill="black"/>
<path d="M156.322 50.7659C154.93 51.6498 153.476 52.0287 151.831 51.713C149.365 51.271 147.91 49.3768 147.91 46.5354C147.91 41.3578 147.91 36.2434 147.91 31.0658C147.91 30.4975 147.91 29.8661 147.91 29.2978C147.91 29.1084 148.037 28.7927 148.226 28.7296C149.681 28.3507 151.136 27.9719 152.653 27.593C152.653 28.035 152.653 28.3507 152.653 28.6664C152.653 34.286 152.653 39.9056 152.653 45.5251C152.653 45.8408 152.653 46.2197 152.717 46.5354C152.906 47.2931 153.349 47.6719 154.171 47.5457C154.614 47.4825 154.867 47.6088 154.993 47.9876C155.373 48.8085 155.816 49.6293 156.258 50.4502C156.322 50.5764 156.322 50.7027 156.322 50.7659Z" fill="black"/>
<path d="M113.442 27.5928C114.011 27.7191 114.517 27.8454 115.087 28.0348C118.122 29.0451 120.02 31.5707 120.083 34.7278C120.146 38.2637 118.502 40.9156 115.466 42.1153C115.213 42.1784 115.023 42.3047 114.644 42.431C116.668 45.3986 118.691 48.3031 120.779 51.3971C120.02 51.3971 119.514 51.3971 118.944 51.3971C117.743 51.3971 116.604 51.3971 115.403 51.3971C114.897 51.3971 114.581 51.2076 114.264 50.7657C112.683 48.3031 111.102 45.8406 109.584 43.315C109.331 42.873 109.015 42.6836 108.446 42.6836C107.94 42.7467 107.371 42.7467 106.802 42.6836C106.232 42.6204 105.979 42.8099 105.979 43.4413C106.043 45.7775 105.979 48.1137 105.979 50.45C105.979 51.0814 105.79 51.3339 105.094 51.3339C103.892 51.2708 102.754 51.3339 101.552 51.3339C101.046 51.3339 100.857 51.2076 100.857 50.7025C100.857 43.8833 100.857 37.064 100.857 30.2447C100.857 28.9188 101.616 28.0979 102.754 27.5297C106.485 27.5928 109.964 27.5928 113.442 27.5928ZM109.458 38.0111C110.407 38.0111 111.292 38.0111 112.241 37.948C113.822 37.8217 114.77 36.8114 114.834 35.1698C114.834 33.5281 113.885 32.3915 112.241 32.3284C110.407 32.2653 108.509 32.3284 106.675 32.2653C106.232 32.2653 106.106 32.4547 106.106 32.8335C106.106 34.3489 106.106 35.8643 106.106 37.3797C106.106 37.8848 106.296 38.0111 106.738 38.0111C107.687 38.0111 108.572 38.0111 109.458 38.0111Z" fill="black"/>
<path d="M128.937 51.8388C124.952 51.8388 121.727 49.7551 120.399 46.4087C118.944 42.8096 119.83 38.6423 122.486 36.1166C126.85 32.0125 136.336 32.9596 137.981 40.5365C139.435 46.7875 135.198 51.902 128.937 51.8388ZM129.063 38.2003C126.407 38.2003 124.636 40.0314 124.636 42.8096C124.636 45.5247 126.407 47.4189 129 47.4189C131.593 47.4189 133.364 45.5878 133.364 42.8728C133.364 40.0945 131.656 38.2003 129.063 38.2003Z" fill="black"/>
<path d="M144.495 29.6134C144.495 30.0554 144.558 30.3711 144.558 30.7499C144.558 35.675 144.558 40.5368 144.558 45.4619C144.558 45.7776 144.558 46.1564 144.621 46.4721C144.685 47.3561 145.191 47.735 146.076 47.6087C146.519 47.5455 146.772 47.6718 146.898 48.0507C147.214 48.8084 147.594 49.566 148.037 50.2606C148.226 50.5763 148.163 50.8289 147.847 51.0183C146.076 51.9654 144.242 52.218 142.345 51.2709C140.827 50.5132 140.194 49.1872 139.941 47.6087C139.815 47.0404 139.815 46.409 139.815 45.7776C139.815 41.042 139.815 36.3695 139.815 31.6339C139.815 30.8762 140.068 30.6237 140.764 30.4342C141.902 30.2448 143.104 29.9291 144.495 29.6134Z" fill="black"/>
<path d="M72.1441 27.5928C74.1679 32.7704 76.1917 38.0111 78.2787 43.1887C79.2274 45.5881 80.1761 47.9874 81.1247 50.3868C81.2512 50.6394 81.3145 50.9551 81.4409 51.3339C80.3026 51.3339 79.2906 51.3339 78.2155 51.3339C76.1285 51.3339 76.1285 51.3339 75.3695 49.3134C75.0533 48.4926 74.7371 47.7349 74.4841 46.914C74.3576 46.5352 74.1047 46.3458 73.662 46.3458C70.6895 46.3458 67.717 46.3458 64.6813 46.3458C64.2386 46.3458 64.0489 46.4721 63.8592 46.914C63.4165 48.1769 62.9105 49.4397 62.4678 50.7025C62.2781 51.1445 62.0883 51.3971 61.5824 51.3339C60.0645 51.2708 58.5467 51.3339 56.9023 51.3339C57.0288 51.0182 57.0921 50.7657 57.1553 50.5131C59.8748 43.5044 62.6575 36.4957 65.377 29.487C65.7565 28.5399 66.3889 27.9717 67.2111 27.5297C68.9187 27.5928 70.4998 27.5928 72.1441 27.5928ZM65.9462 41.6102C68.1597 41.6102 70.31 41.6102 72.4603 41.6102C71.3852 38.7057 70.31 35.8643 69.1716 32.8335C68.0332 35.8643 66.9581 38.7057 65.9462 41.6102Z" fill="black"/>
<path d="M98.58 27.593C98.58 27.8456 98.6432 28.0981 98.6432 28.3507C98.6432 35.7382 98.6432 43.1258 98.6432 50.5133C98.6432 51.271 98.4535 51.5236 97.6946 51.4604C96.7459 51.3973 95.8605 51.4604 94.9119 51.4604C94.4692 51.4604 94.2794 51.3341 94.2794 50.8921C94.2794 50.387 94.1529 49.945 94.0897 49.4399C94.0265 49.4399 93.9632 49.4399 93.9 49.503C91.3702 52.8495 86.0577 52.6601 83.022 49.5662C79.4171 45.8408 79.6701 39.0847 83.528 35.7382C86.3739 33.2757 90.9908 33.1494 93.4573 35.5488C93.5205 35.612 93.5837 35.612 93.7102 35.6751C93.7102 35.4857 93.7735 35.2963 93.7735 35.1068C93.7735 33.7809 93.8367 32.4549 93.7735 31.1289C93.7102 29.5504 94.2162 28.3507 95.734 27.7193C96.7459 27.593 97.6313 27.593 98.58 27.593ZM85.4885 42.8732C85.4885 43.0626 85.4885 43.3152 85.5518 43.5678C85.7415 45.6514 87.3226 47.1668 89.4097 47.3562C91.5599 47.5457 93.394 46.4091 93.9632 44.3886C94.1529 43.694 94.2162 42.8732 94.1529 42.1787C94.0264 40.2844 92.8248 38.8322 91.054 38.3902C87.955 37.5693 85.4885 39.5267 85.4885 42.8732Z" fill="black"/>
</svg>
