<svg width="187" height="80" viewBox="0 0 187 80" fill="none" xmlns="http://www.w3.org/2000/svg">
<path d="M131.76 35.1065C132.957 35.1065 134.092 35.1065 135.227 35.1065C135.227 35.7379 135.227 36.3693 135.227 37.0639C135.29 37.0639 135.29 37.127 135.353 37.127C135.858 36.243 136.488 35.5485 137.497 35.359C138.38 35.1696 139.389 35.1696 140.397 35.0433C140.334 35.2328 140.334 35.359 140.334 35.4853C139.956 36.4324 139.641 37.3796 139.263 38.3267C139.2 38.5792 139.073 38.7055 138.758 38.6424C138.569 38.6424 138.38 38.6424 138.128 38.6424C136.362 38.6424 135.416 39.5264 135.416 41.2943C135.353 43.4411 135.416 45.5879 135.353 47.7347C135.353 47.9242 135.353 48.1136 135.353 48.303C134.155 48.303 132.957 48.303 131.76 48.303C131.76 43.8831 131.76 39.5264 131.76 35.1065Z" fill="black"/>
<path d="M144.874 48.3027C143.676 48.3027 142.541 48.3027 141.343 48.3027C141.343 46.661 141.343 45.0825 141.343 43.504C141.343 41.9254 141.343 40.2838 141.343 38.6421C140.902 38.6421 140.523 38.6421 140.019 38.6421C140.334 37.695 140.713 36.811 141.028 35.9902C141.343 35.1062 141.343 35.1693 142.289 35.1693C143.172 35.1693 144.054 35.1693 144.937 35.1693C144.874 39.5261 144.874 43.8828 144.874 48.3027Z" fill="black"/>
<path d="M82.5798 42.9989C79.2381 42.9989 75.8964 42.9989 72.5547 42.9989C72.5547 43.8829 73.4374 44.83 74.5723 45.2089C76.0225 45.6508 77.851 45.5877 79.175 43.5672C80.1208 44.1355 81.0035 44.6406 81.9493 45.2089C80.6252 47.8608 77.0943 49.313 73.6266 48.2396C70.2849 47.1662 68.3303 43.5672 69.213 40.0944C70.0957 36.5585 73.6266 34.3486 77.1574 34.98C80.6252 35.6114 83.0842 38.579 82.5798 42.9989ZM72.6808 40.0944C74.8245 40.0944 76.8421 40.0944 78.9228 40.0944C78.7337 39.021 77.5988 38.137 76.3377 38.0739C74.6354 37.8845 73.2483 38.6422 72.6808 40.0944Z" fill="black"/>
<path d="M95.6944 48.3031C94.4334 48.3031 93.2984 48.3031 92.0374 48.3031C92.0374 48.1137 92.0374 47.9243 92.0374 47.798C92.0374 45.4618 92.0374 43.1255 92.0374 40.7893C92.0374 40.4736 92.0374 40.221 91.9744 39.9053C91.7852 38.7688 91.0286 38.0111 90.0198 37.948C88.6957 37.8217 87.75 38.3899 87.3717 39.5896C87.1825 40.0948 87.1195 40.7262 87.1195 41.2313C87.1195 43.3781 87.1195 45.5249 87.1195 47.6717C87.1195 47.8611 87.1195 48.0506 87.1195 48.24C85.9215 48.24 84.7866 48.24 83.5886 48.24C83.5886 43.8832 83.5886 39.5265 83.5886 35.1066C84.7235 35.1066 85.9215 35.1066 87.1195 35.1066C87.1195 35.5486 87.1195 35.9274 87.1195 36.4957C87.3717 36.3063 87.4978 36.1169 87.6869 35.9906C89.2001 34.6646 90.9656 34.4752 92.794 35.1066C94.5594 35.738 95.4422 37.1271 95.6944 38.8951C95.7574 39.4002 95.8205 39.9053 95.8205 40.4105C95.8205 42.8098 95.8205 45.2092 95.8205 47.6086C95.6944 47.8611 95.6944 48.0506 95.6944 48.3031Z" fill="black"/>
<path d="M159.691 48.3027C158.493 48.3027 157.358 48.3027 156.16 48.3027C156.16 47.8607 156.16 47.4188 156.16 46.9136C156.034 46.9768 155.971 47.0399 155.908 47.0399C153.764 49.2498 150.17 48.9341 147.9 46.8505C146.135 45.2088 145.631 43.062 145.82 40.7889C146.009 38.8315 146.829 37.253 148.405 36.0533C150.549 34.4748 153.953 34.3485 155.908 36.2428C155.908 36.2428 155.971 36.2427 156.034 36.3059C156.034 33.9065 156.034 31.5072 156.034 29.1078C157.232 29.1078 158.43 29.1078 159.628 29.1078C159.691 35.4851 159.691 41.8623 159.691 48.3027ZM156.223 41.6729C156.223 39.7155 154.773 38.137 152.818 38.137C150.801 38.137 149.288 39.6524 149.288 41.6729C149.288 43.6303 150.864 45.2719 152.818 45.2719C154.773 45.2719 156.223 43.6934 156.223 41.6729Z" fill="black"/>
<path d="M106.918 48.2399C106.918 47.7979 106.918 47.3559 106.918 46.9771C106.854 46.9771 106.791 46.9771 106.791 46.9771C104.774 49.1239 101.432 49.0607 99.1623 47.2928C97.0185 45.6511 96.388 43.378 96.6402 40.8523C96.8294 38.6424 97.8382 36.8744 99.7297 35.7379C101.873 34.4751 104.837 34.4751 106.918 36.3693C106.918 33.9068 106.918 31.5074 106.918 29.0449C108.179 29.0449 109.313 29.0449 110.511 29.0449C110.511 35.4222 110.511 41.8626 110.511 48.2399C109.313 48.2399 108.179 48.2399 106.918 48.2399ZM107.044 41.6732C107.044 39.6527 105.593 38.1373 103.639 38.1373C101.621 38.1373 100.108 39.7158 100.108 41.6732C100.108 43.6937 101.684 45.2091 103.639 45.2091C105.53 45.2722 107.044 43.6937 107.044 41.6732Z" fill="black"/>
<path d="M129.994 33.717C128.922 34.3484 127.85 34.9799 126.841 35.6113C126.337 35.043 125.959 34.4116 125.454 33.9065C122.554 31.1282 116.753 31.9491 115.303 36.9372C114.042 41.2308 117.321 45.2719 121.734 45.0193C124.067 44.893 125.707 43.8196 126.652 41.6728C126.715 41.4834 126.778 41.294 126.905 40.9783C126.715 40.9783 126.526 40.9783 126.337 40.9783C124.635 40.9783 122.995 40.9783 121.293 40.9783C120.915 40.9783 120.789 40.852 120.789 40.4732C120.789 39.526 120.789 38.5158 120.789 37.5055C124.13 37.5055 127.472 37.5055 130.751 37.5055C131.255 42.8094 128.418 47.3556 123.5 48.3658C118.014 49.5024 112.466 46.3453 111.52 40.2837C110.7 35.043 113.853 30.118 119.086 29.0446C123.058 28.2237 127.346 29.6129 129.679 33.2119C129.742 33.3382 129.868 33.5276 129.994 33.717Z" fill="black"/>
<path d="M143.172 33.0857C141.974 33.0857 141.028 32.1386 140.965 30.9389C140.965 29.7392 141.911 28.7921 143.172 28.7921C144.37 28.7921 145.315 29.7392 145.315 30.9389C145.315 32.0755 144.307 33.0857 143.172 33.0857Z" fill="black"/>
<path d="M54.0178 45.0827C55.0897 44.1987 56.2246 43.3779 57.2965 42.4939C57.7378 42.999 58.1792 43.5673 58.6836 43.9461C59.7555 44.8301 60.9534 45.209 62.3405 44.9564C63.4754 44.7038 64.2951 43.883 64.4212 42.6833C64.4843 41.8625 64.106 41.2942 63.4755 40.9153C62.6558 40.5365 61.7731 40.2208 60.9534 39.9051C60.1338 39.5894 59.251 39.3368 58.4314 39.0211C56.2246 38.2003 54.9636 36.748 54.9636 34.3487C54.9636 32.0124 56.1615 30.3708 58.2422 29.4236C61.0165 28.1608 65.2409 28.5397 67.826 31.5704C66.8171 32.3281 65.8714 33.0858 64.8626 33.8435C64.7365 33.7172 64.6734 33.6541 64.6104 33.5278C63.5385 32.2019 61.71 31.6967 60.1968 32.265C59.3771 32.5807 58.8727 33.149 58.8097 34.033C58.7466 34.8538 59.188 35.4221 59.8816 35.7378C60.9534 36.2429 62.0883 36.6217 63.2232 37.0006C64.4212 37.4426 65.6822 37.8846 66.628 38.7685C68.3304 40.2839 68.7717 42.8096 67.6999 45.0195C66.7541 47.0401 65.0517 48.1766 62.8449 48.4923C59.4402 48.9343 56.5399 47.924 54.207 45.3352C54.1439 45.2721 54.0809 45.209 54.0178 45.0827Z" fill="black"/>
<path opacity="0.62" d="M49.9196 24.6885H33.9678V40.6632H49.9196V24.6885Z" fill="black"/>
<path opacity="0.62" d="M42.0382 32.7073H26.4016V48.1138H42.0382V32.7073Z" fill="black"/>
</svg>
