<svg width="11" height="9" viewBox="0 0 11 9" fill="none" xmlns="http://www.w3.org/2000/svg">
<path fill-rule="evenodd" clip-rule="evenodd" d="M5.18252 0.183373C5.24058 0.125169 5.30955 0.0789899 5.38548 0.0474819C5.46141 0.0159738 5.54281 -0.000244141 5.62502 -0.000244141C5.70723 -0.000244141 5.78863 0.0159738 5.86456 0.0474819C5.94049 0.0789899 6.00946 0.125169 6.06752 0.183373L9.81752 3.93337C9.87572 3.99143 9.9219 4.0604 9.95341 4.13633C9.98492 4.21226 10.0011 4.29366 10.0011 4.37587C10.0011 4.45808 9.98492 4.53948 9.95341 4.61541C9.9219 4.69135 9.87572 4.76032 9.81752 4.81837L6.06752 8.56837C5.95016 8.68573 5.79099 8.75166 5.62502 8.75166C5.45905 8.75166 5.29988 8.68573 5.18252 8.56837C5.06516 8.45101 4.99923 8.29184 4.99923 8.12587C4.99923 7.9599 5.06516 7.80073 5.18252 7.68337L8.49127 4.37587L5.18252 1.06837C5.12431 1.01032 5.07814 0.941346 5.04663 0.865415C5.01512 0.789483 4.9989 0.708082 4.9989 0.625873C4.9989 0.543664 5.01512 0.462262 5.04663 0.386331C5.07814 0.310399 5.12431 0.24143 5.18252 0.183373Z" fill="black"/>
<path fill-rule="evenodd" clip-rule="evenodd" d="M0 4.37598C0 4.21022 0.0658481 4.05125 0.183058 3.93403C0.300269 3.81682 0.45924 3.75098 0.625 3.75098H8.75C8.91576 3.75098 9.07473 3.81682 9.19194 3.93403C9.30915 4.05125 9.375 4.21022 9.375 4.37598C9.375 4.54174 9.30915 4.70071 9.19194 4.81792C9.07473 4.93513 8.91576 5.00098 8.75 5.00098H0.625C0.45924 5.00098 0.300269 4.93513 0.183058 4.81792C0.0658481 4.70071 0 4.54174 0 4.37598Z" fill="black"/>
</svg>
