<svg width="187" height="80" viewBox="0 0 187 80" fill="none" xmlns="http://www.w3.org/2000/svg">
<path fill-rule="evenodd" clip-rule="evenodd" d="M38.6335 45.9668H18.268C17.8165 45.9668 17.3835 45.7871 17.0643 45.4674C16.745 45.1477 16.5657 44.7141 16.5657 44.2619C16.5657 43.8098 16.745 43.3762 17.0643 43.0565C17.3835 42.7367 17.8165 42.5571 18.268 42.5571H38.6335C39.085 42.5571 39.518 42.7367 39.8372 43.0565C40.1565 43.3762 40.3358 43.8098 40.3358 44.2619C40.3358 44.7141 40.1565 45.1477 39.8372 45.4674C39.518 45.7871 39.085 45.9668 38.6335 45.9668Z" fill="black"/>
<path fill-rule="evenodd" clip-rule="evenodd" d="M34.283 56.3851C32.6403 56.3802 31.0064 56.1464 29.428 55.6905C29.2128 55.6242 29.0126 55.516 28.8391 55.3723C28.6656 55.2285 28.522 55.0519 28.4166 54.8525C28.2038 54.4499 28.1594 53.9791 28.2931 53.5437C28.4269 53.1083 28.7279 52.744 29.1299 52.5308C29.532 52.3177 30.0021 52.2732 30.4369 52.4072C31.684 52.7851 32.98 52.9766 34.283 52.9755C37.0727 52.9634 39.785 52.0552 42.0208 50.3844C44.2567 48.7136 45.8983 46.3684 46.704 43.6937C46.8461 43.264 47.1484 42.9059 47.5478 42.6941C47.9473 42.4823 48.413 42.4333 48.8477 42.5571C49.2768 42.6994 49.6344 43.0022 49.8459 43.4022C50.0573 43.8022 50.1063 44.2686 49.9826 44.704C48.9736 48.0861 46.8997 51.0509 44.0703 53.1561C41.241 55.2612 37.8078 56.3939 34.283 56.3851Z" fill="black"/>
<path fill-rule="evenodd" clip-rule="evenodd" d="M50.2978 37.3163H29.9324C29.4809 37.3163 29.0479 37.1366 28.7286 36.8169C28.4093 36.4972 28.23 36.0636 28.23 35.6114C28.23 35.1593 28.4093 34.7257 28.7286 34.406C29.0479 34.0862 29.4809 33.9066 29.9324 33.9066H50.2978C50.5216 33.9058 50.7433 33.9493 50.9502 34.0347C51.1572 34.1201 51.3452 34.2456 51.5034 34.4041C51.6616 34.5626 51.787 34.7508 51.8723 34.9581C51.9575 35.1653 52.001 35.3873 52.0002 35.6114C51.9921 36.0611 51.8101 36.49 51.4926 36.808C51.1751 37.1259 50.7467 37.3082 50.2978 37.3163Z" fill="black"/>
<path fill-rule="evenodd" clip-rule="evenodd" d="M73.4376 39.211L70.6633 38.6427C69.2762 38.327 68.5196 37.5061 68.5196 36.2433C68.5196 34.6017 69.9067 33.4651 71.8613 33.4651C72.6542 33.4324 73.4358 33.662 74.0853 34.1185C74.7349 34.575 75.2163 35.2329 75.4552 35.9908C75.481 36.0882 75.5284 36.1786 75.5939 36.2551C75.6594 36.3316 75.7413 36.3924 75.8335 36.4327C76.0179 36.4848 76.2096 36.5062 76.401 36.4959L77.8511 35.9908C77.9394 35.9637 78.0213 35.919 78.0918 35.8593C78.1623 35.7997 78.2199 35.7263 78.2612 35.6436C78.3024 35.5609 78.3265 35.4707 78.3319 35.3784C78.3373 35.2861 78.3239 35.1937 78.2925 35.1068C77.9142 33.7808 76.5271 30.6869 71.8613 30.6869C68.3935 30.6869 65.4301 33.3388 65.4301 36.4959C65.4301 39.211 67.1956 41.2315 70.1589 41.8629L72.8071 42.4312C74.4464 42.7469 75.3291 43.7571 75.3291 45.02C75.3291 46.6616 73.942 47.6719 71.7983 47.6719C70.8336 47.7159 69.8859 47.4071 69.1318 46.803C68.3777 46.1988 67.8688 45.3407 67.7 44.3885C67.6647 44.2053 67.5591 44.0432 67.4059 43.9369C67.2527 43.8307 67.064 43.7888 66.8803 43.8203C66.8172 43.8203 66.8172 43.8203 66.8172 43.8834L65.1779 44.3885C65.0125 44.4465 64.872 44.5598 64.7802 44.7093C64.6883 44.8588 64.6506 45.0354 64.6735 45.2094C65.1779 47.8613 67.3217 50.6395 71.8613 50.6395C75.7074 50.6395 78.5447 48.1139 78.5447 44.8305C78.5447 41.926 76.7162 39.9055 73.4376 39.211ZM89.9569 41.7366C89.9569 41.7998 89.9569 41.7998 89.8939 41.8629C89.8308 41.926 89.8308 41.926 89.7678 41.926H83.841C83.7779 41.926 83.7779 41.8629 83.7149 41.8629C83.6518 41.8629 83.6518 41.7998 83.6518 41.7366C83.7907 41.0255 84.1779 40.3872 84.744 39.936C85.3101 39.4848 86.0182 39.2501 86.7413 39.2741C88.5067 39.2741 89.7047 40.2212 89.9569 41.7366ZM86.7413 36.4959C83.6518 36.4959 80.4362 39.0847 80.4362 43.4414C80.4011 44.3967 80.562 45.3491 80.9091 46.2397C81.2561 47.1302 81.7819 47.94 82.4539 48.619C83.0586 49.2228 83.7766 49.701 84.5665 50.0261C85.3563 50.3512 86.2026 50.5167 87.0566 50.5132C88.2877 50.5604 89.5038 50.2286 90.5409 49.5626C91.578 48.8965 92.3865 47.9281 92.8573 46.7879C92.9207 46.6038 92.9207 46.4037 92.8573 46.2196C92.8169 46.1273 92.7563 46.0452 92.6799 45.9796C92.6034 45.914 92.5132 45.8666 92.4159 45.8408L91.0918 45.3988C90.9238 45.3447 90.7419 45.3532 90.5797 45.4228C90.4174 45.4924 90.2858 45.6185 90.2091 45.7777C89.9681 46.4075 89.532 46.9435 88.9647 47.3071C88.3973 47.6707 87.7286 47.8428 87.0566 47.7982C86.1964 47.8119 85.3625 47.5015 84.7202 46.9284C84.0779 46.3554 83.6741 45.5615 83.5888 44.7043C83.5888 44.6411 83.5888 44.6411 83.6518 44.578C83.6858 44.5437 83.7301 44.5215 83.7779 44.5148H92.4159C92.5993 44.5132 92.7748 44.4395 92.9045 44.3096C93.0342 44.1797 93.1078 44.004 93.1094 43.8203V43.4414C93.1094 39.1478 90.6505 36.4959 86.7413 36.4959ZM101.432 46.8511C99.3515 46.8511 98.0905 45.3988 98.0905 43.1257C98.0905 40.8526 99.4145 39.4004 101.432 39.4004C103.45 39.4004 104.774 40.9158 104.774 43.1257C104.774 45.3357 103.387 46.8511 101.432 46.8511ZM106.918 36.9379H105.341C105.246 36.9402 105.151 36.9619 105.064 37.0016C104.977 37.0414 104.898 37.0983 104.834 37.169C104.769 37.2398 104.719 37.3229 104.687 37.4133C104.655 37.5038 104.642 37.5998 104.648 37.6956C104.641 37.7434 104.619 37.7878 104.585 37.8219C104.522 37.8219 104.522 37.885 104.459 37.8219C103.516 37.0554 102.331 36.6522 101.117 36.6853C97.5861 36.6853 95.064 39.4004 95.064 43.1257C95.064 46.8511 97.5861 49.5661 101.117 49.5661C102.341 49.5968 103.533 49.169 104.459 48.3664C104.491 48.3304 104.536 48.3079 104.585 48.3033C104.648 48.3033 104.648 48.3664 104.648 48.4296V48.9979C104.648 51.5866 103.513 52.7863 101.054 52.7863C100.34 52.8093 99.6414 52.5822 99.0774 52.1442C98.5133 51.7061 98.1197 51.0846 97.9644 50.387C97.8967 50.2162 97.7885 50.0645 97.6491 49.945C97.5675 49.8875 97.4727 49.8515 97.3735 49.8405C97.2743 49.8294 97.1739 49.8437 97.0817 49.8818L95.5684 50.1975C95.3764 50.2399 95.2089 50.3566 95.1026 50.5223C94.9962 50.6879 94.9597 50.889 95.001 51.0815C95.5684 53.7335 97.9644 55.5646 101.054 55.5646C103.324 55.5646 105.089 54.87 106.224 53.4809C107.224 52.1823 107.737 50.5734 107.674 48.9347V37.6324C107.672 37.5365 107.65 37.442 107.611 37.3547C107.571 37.2673 107.514 37.1889 107.443 37.124C107.373 37.0592 107.29 37.0093 107.199 36.9773C107.109 36.9453 107.013 36.9319 106.918 36.9379ZM125.518 36.559C124.732 36.5172 123.948 36.6679 123.234 36.9979C122.52 37.328 121.897 37.8276 121.419 38.4533C121.356 38.5164 121.356 38.5164 121.293 38.5164C121.276 38.5164 121.26 38.5098 121.249 38.4979C121.237 38.4861 121.23 38.47 121.23 38.4533C120.822 37.8472 120.266 37.3553 119.615 37.0239C118.964 36.6925 118.24 36.5325 117.51 36.559C116.307 36.5392 115.139 36.9666 114.231 37.7587C114.207 37.7826 114.177 37.8006 114.144 37.8115C114.111 37.8225 114.077 37.826 114.042 37.8219C113.979 37.7587 113.979 37.7587 113.979 37.6956C113.989 37.6019 113.978 37.5072 113.947 37.4184C113.915 37.3297 113.865 37.249 113.798 37.1824C113.732 37.1158 113.651 37.065 113.562 37.0336C113.474 37.0022 113.379 36.9911 113.286 37.001H111.709C111.526 37.0027 111.351 37.0764 111.221 37.2063C111.091 37.3362 111.018 37.5119 111.016 37.6956V49.4398C111.006 49.5335 111.017 49.6282 111.048 49.717C111.08 49.8058 111.131 49.8864 111.197 49.953C111.264 50.0196 111.344 50.0704 111.433 50.1018C111.521 50.1332 111.616 50.1443 111.709 50.1344H113.286C113.469 50.1328 113.645 50.059 113.774 49.9292C113.904 49.7993 113.978 49.6235 113.979 49.4398V42.2417C113.979 40.4738 115.051 39.3372 116.627 39.3372C118.708 39.3372 119.023 40.9789 119.023 41.926V49.4398C119.013 49.5335 119.025 49.6282 119.056 49.717C119.087 49.8058 119.138 49.8864 119.204 49.953C119.271 50.0196 119.352 50.0704 119.44 50.1018C119.529 50.1332 119.623 50.1443 119.717 50.1344H121.293C121.477 50.1328 121.652 50.059 121.782 49.9292C121.911 49.7993 121.985 49.6235 121.987 49.4398V42.1786C121.987 40.4738 123.059 39.2741 124.635 39.2741C126.716 39.2741 127.031 40.9158 127.031 41.8629V49.3767C127.021 49.4704 127.032 49.565 127.063 49.6538C127.095 49.7426 127.145 49.8233 127.212 49.8899C127.278 49.9564 127.359 50.0073 127.448 50.0387C127.536 50.0701 127.631 50.0812 127.724 50.0713H129.301C129.394 50.0812 129.489 50.0701 129.577 50.0387C129.666 50.0073 129.747 49.9564 129.813 49.8899C129.88 49.8233 129.93 49.7426 129.962 49.6538C129.993 49.565 130.004 49.4704 129.994 49.3767V41.6103C130.12 38.1376 127.787 36.559 125.518 36.559ZM136.047 41.926C135.984 41.926 135.984 41.8629 135.921 41.8629C135.858 41.8629 135.858 41.7998 135.858 41.7366C135.997 41.0255 136.384 40.3872 136.95 39.936C137.516 39.4848 138.224 39.2501 138.947 39.2741C140.65 39.2741 141.848 40.2212 142.1 41.7366C142.1 41.7998 142.1 41.7998 142.037 41.8629C141.974 41.926 141.974 41.926 141.911 41.926H136.047ZM138.947 36.559C135.858 36.559 132.642 39.1478 132.642 43.5046C132.607 44.4599 132.768 45.4123 133.115 46.3028C133.462 47.1934 133.988 48.0032 134.66 48.6822C135.268 49.2771 135.988 49.7454 136.778 50.0597C137.568 50.374 138.413 50.5282 139.263 50.5132C140.492 50.5515 141.704 50.216 142.74 49.5511C143.775 48.8861 144.585 47.9228 145.063 46.7879C145.127 46.6038 145.127 46.4037 145.063 46.2196C145.023 46.1273 144.962 46.0452 144.886 45.9796C144.81 45.914 144.719 45.8666 144.622 45.8408L143.298 45.3988C143.13 45.3373 142.946 45.3423 142.781 45.4127C142.617 45.4831 142.486 45.6137 142.415 45.7777C142.174 46.4075 141.738 46.9435 141.171 47.3071C140.603 47.6707 139.935 47.8428 139.263 47.7982C138.403 47.8119 137.569 47.5015 136.926 46.9284C136.284 46.3554 135.88 45.5615 135.795 44.7043C135.795 44.6411 135.795 44.6411 135.858 44.578C135.892 44.5437 135.936 44.5215 135.984 44.5148H144.622C144.805 44.5132 144.981 44.4395 145.111 44.3096C145.24 44.1797 145.314 44.004 145.316 43.8203V43.4414C145.253 39.1478 142.857 36.4959 138.947 36.559ZM154.584 36.559C153.966 36.5421 153.352 36.6508 152.777 36.8788C152.203 37.1067 151.681 37.449 151.242 37.885C151.179 37.9481 151.179 37.9481 151.053 37.9481C150.927 37.9481 150.99 37.885 150.99 37.8219V37.7587C151 37.6651 150.989 37.5704 150.958 37.4816C150.926 37.3928 150.875 37.3122 150.809 37.2456C150.742 37.179 150.662 37.1281 150.573 37.0967C150.485 37.0653 150.39 37.0542 150.297 37.0642H148.783C148.69 37.0542 148.595 37.0653 148.507 37.0967C148.418 37.1281 148.337 37.179 148.271 37.2456C148.204 37.3122 148.154 37.3928 148.122 37.4816C148.091 37.5704 148.08 37.6651 148.09 37.7587V49.503C148.08 49.5966 148.091 49.6913 148.122 49.7801C148.154 49.8689 148.204 49.9495 148.271 50.0161C148.337 50.0827 148.418 50.1336 148.507 50.165C148.595 50.1964 148.69 50.2075 148.783 50.1975H150.36C150.453 50.2075 150.548 50.1964 150.636 50.165C150.725 50.1336 150.806 50.0827 150.872 50.0161C150.939 49.9495 150.989 49.8689 151.021 49.7801C151.052 49.6913 151.063 49.5966 151.053 49.503V42.5575C151.053 41.0421 151.747 39.3372 153.701 39.3372C155.467 39.3372 156.349 40.2844 156.349 42.2417V49.3767C156.34 49.4704 156.351 49.565 156.382 49.6538C156.413 49.7426 156.464 49.8233 156.531 49.8899C156.597 49.9564 156.678 50.0073 156.766 50.0387C156.855 50.0701 156.949 50.0812 157.043 50.0713H158.619C158.713 50.0812 158.807 50.0701 158.896 50.0387C158.985 50.0073 159.065 49.9564 159.132 49.8899C159.198 49.8233 159.249 49.7426 159.28 49.6538C159.312 49.565 159.323 49.4704 159.313 49.3767V41.8629C159.376 38.5796 157.547 36.559 154.584 36.559ZM166.753 39.7161H168.644C168.738 39.726 168.832 39.7149 168.921 39.6835C169.01 39.6521 169.09 39.6013 169.157 39.5347C169.223 39.4681 169.274 39.3875 169.305 39.2987C169.337 39.2099 169.348 39.1152 169.338 39.0215V37.6324C169.348 37.5388 169.337 37.4441 169.305 37.3553C169.274 37.2665 169.223 37.1859 169.157 37.1193C169.09 37.0527 169.01 37.0018 168.921 36.9705C168.832 36.9391 168.738 36.9279 168.644 36.9379H166.753C166.69 36.9379 166.564 36.8747 166.564 36.8116V33.7177C166.574 33.624 166.562 33.5293 166.531 33.4405C166.5 33.3518 166.449 33.2711 166.383 33.2045C166.316 33.1379 166.236 33.0871 166.147 33.0557C166.058 33.0243 165.964 33.0132 165.87 33.0231H164.483C164.39 33.0132 164.295 33.0243 164.206 33.0557C164.118 33.0871 164.037 33.1379 163.971 33.2045C163.904 33.2711 163.853 33.3518 163.822 33.4405C163.791 33.5293 163.78 33.624 163.789 33.7177V35.3593C163.815 35.581 163.789 35.8056 163.716 36.0162C163.642 36.2268 163.522 36.4181 163.365 36.5759C163.207 36.7336 163.016 36.8538 162.806 36.9274C162.596 37.001 162.372 37.0262 162.15 37.001H161.898C161.804 36.9911 161.71 37.0022 161.621 37.0336C161.533 37.065 161.452 37.1158 161.386 37.1824C161.319 37.249 161.268 37.3297 161.237 37.4184C161.206 37.5072 161.194 37.6019 161.204 37.6956V39.0847C161.194 39.1783 161.206 39.273 161.237 39.3618C161.268 39.4506 161.319 39.5312 161.386 39.5978C161.452 39.6644 161.533 39.7153 161.621 39.7467C161.71 39.778 161.804 39.7892 161.898 39.7792H163.411C163.474 39.7792 163.6 39.8424 163.6 39.9055V46.4091C163.6 48.8084 165.05 50.2607 167.446 50.2607C167.912 50.2691 168.377 50.2268 168.834 50.1344C168.991 50.0971 169.132 50.0088 169.235 49.8833C169.337 49.7578 169.396 49.6019 169.401 49.4398V48.177C169.411 48.0834 169.4 47.9887 169.368 47.8999C169.337 47.8111 169.286 47.7305 169.22 47.6639C169.153 47.5973 169.073 47.5464 168.984 47.515C168.895 47.4837 168.801 47.4725 168.707 47.4825H168.644C168.455 47.4825 168.329 47.5456 168.203 47.5456C167.131 47.5456 166.69 47.1668 166.69 46.0934V39.9055C166.564 39.7792 166.69 39.7161 166.753 39.7161Z" fill="black"/>
<path fill-rule="evenodd" clip-rule="evenodd" d="M20.2226 37.3165C19.9989 37.3173 19.7771 37.2738 19.5702 37.1884C19.3633 37.103 19.1753 36.9775 19.017 36.819C18.8588 36.6605 18.7334 36.4723 18.6482 36.2651C18.5629 36.0578 18.5194 35.8358 18.5203 35.6117C18.5203 35.4222 18.5833 35.296 18.5833 35.1065C19.6107 31.7404 21.6913 28.7941 24.5181 26.7022C27.3448 24.6103 30.7682 23.4837 34.283 23.4885C35.9256 23.4935 37.5596 23.7272 39.1379 24.1831C39.5624 24.3318 39.9152 24.6356 40.1256 25.0337C40.3361 25.4317 40.3886 25.8947 40.2728 26.3299C40.1243 26.755 39.8209 27.1083 39.4234 27.319C39.026 27.5298 38.5637 27.5824 38.1291 27.4664C36.882 27.0885 35.586 26.897 34.283 26.8982C31.4946 26.8788 28.7754 27.7674 26.5351 29.4301C24.2948 31.0928 22.6547 33.4395 21.862 36.1168C21.7452 36.4614 21.5251 36.7615 21.2318 36.9763C20.9384 37.191 20.586 37.3098 20.2226 37.3165Z" fill="black"/>
<path fill-rule="evenodd" clip-rule="evenodd" d="M46.0734 29.108C46.0734 29.4452 45.9736 29.7748 45.7865 30.0552C45.5995 30.3355 45.3336 30.554 45.0225 30.6831C44.7115 30.8121 44.3692 30.8459 44.039 30.7801C43.7087 30.7143 43.4054 30.5519 43.1673 30.3135C42.9292 30.0751 42.7671 29.7713 42.7014 29.4406C42.6357 29.1099 42.6694 28.7671 42.7983 28.4556C42.9271 28.1441 43.1453 27.8778 43.4253 27.6905C43.7052 27.5032 44.0344 27.4032 44.3711 27.4032C44.82 27.4113 45.2484 27.5935 45.5659 27.9115C45.8834 28.2295 46.0654 28.6584 46.0734 29.108ZM25.8972 50.7655C25.8972 51.1027 25.7973 51.4323 25.6103 51.7126C25.4232 51.993 25.1573 52.2115 24.8463 52.3405C24.5352 52.4696 24.1929 52.5033 23.8627 52.4375C23.5325 52.3718 23.2291 52.2094 22.991 51.971C22.753 51.7325 22.5908 51.4288 22.5251 51.0981C22.4595 50.7674 22.4932 50.4246 22.622 50.1131C22.7509 49.8016 22.9691 49.5353 23.249 49.348C23.529 49.1607 23.8581 49.0607 24.1948 49.0607C24.4186 49.0598 24.6403 49.1034 24.8473 49.1887C25.0542 49.2741 25.2422 49.3997 25.4004 49.5581C25.5587 49.7166 25.684 49.9049 25.7693 50.1121C25.8545 50.3193 25.898 50.5414 25.8972 50.7655Z" fill="black"/>
</svg>
