<svg width="187" height="80" viewBox="0 0 187 80" fill="none" xmlns="http://www.w3.org/2000/svg">
<path d="M116.545 40.7199V38.6993C116.555 38.4242 116.534 38.1488 116.482 37.8785C116.376 37.3443 116.107 36.8563 115.712 36.4828C115.316 36.1092 114.814 35.8687 114.275 35.7948C113.393 35.5665 112.474 35.5216 111.573 35.6628C110.673 35.8039 109.812 36.1282 109.042 36.6157C108.829 36.7782 108.58 36.8861 108.316 36.9302C108.053 36.9742 107.782 36.9529 107.529 36.8682C107.244 36.7746 106.988 36.6079 106.787 36.3849C106.586 36.1619 106.447 35.8901 106.383 35.5966C106.32 35.3032 106.334 34.9981 106.424 34.7117C106.514 34.4253 106.678 34.1674 106.898 33.9637C107.471 33.3694 108.188 32.9343 108.979 32.7009C111.298 31.8425 113.814 31.6672 116.23 32.1958C117.706 32.4704 119.03 33.2795 119.95 34.4689C120.729 35.5748 121.127 36.9046 121.084 38.2573V47.6023C121.092 47.9048 121.038 48.2058 120.926 48.4867C120.814 48.7677 120.645 49.0227 120.431 49.2361C120.217 49.4495 119.961 49.6169 119.68 49.7279C119.399 49.8389 119.098 49.8912 118.796 49.8817C118.521 49.8921 118.246 49.8709 117.976 49.8185C117.56 49.7281 117.189 49.4963 116.924 49.1625C116.66 48.8286 116.519 48.4134 116.526 47.9874C116.463 47.9874 116.463 47.9874 116.4 48.0506C115.265 49.2258 113.74 49.9446 112.112 50.0711C110.782 50.2611 109.425 50.0639 108.203 49.5028C107.159 49.0294 106.291 48.2366 105.724 47.2382C105.158 46.2398 104.922 45.0874 105.051 43.9464C105.092 42.7103 105.571 41.5293 106.403 40.6152C107.235 39.7011 108.365 39.1136 109.59 38.9582C111.554 38.5351 113.604 38.8736 115.328 39.9053C115.532 40.0326 115.722 40.1807 115.895 40.3473C116.13 40.4361 116.349 40.5618 116.545 40.7199ZM116.545 44.3821V43.7506C116.573 43.5668 116.546 43.3786 116.468 43.2101C116.389 43.0415 116.262 42.9 116.103 42.8035C115.423 42.2782 114.618 41.9381 113.767 41.8164C112.917 41.6947 112.049 41.7955 111.249 42.109C110.774 42.2631 110.362 42.5689 110.078 42.9795C109.793 43.39 109.651 43.8827 109.672 44.3821C109.687 44.8906 109.858 45.3822 110.163 45.7893C110.468 46.1963 110.891 46.4988 111.375 46.6551C112.184 46.9371 113.054 47.0024 113.897 46.8446C114.767 46.7403 115.583 46.3648 116.23 45.7712C116.346 45.686 116.438 45.5702 116.493 45.4366C116.549 45.3029 116.567 45.1566 116.545 45.0135C116.513 44.8042 116.513 44.5913 116.545 44.3821Z" fill="black"/>
<path d="M131.488 31.8802C133.223 31.8421 134.945 32.187 136.532 32.8904C137.004 33.1041 137.431 33.4039 137.793 33.7744C138.032 33.9793 138.202 34.2526 138.281 34.5574C138.36 34.8622 138.344 35.1839 138.234 35.4792C138.131 35.7847 137.948 36.057 137.704 36.2679C137.46 36.4788 137.164 36.6207 136.847 36.6789C136.621 36.7297 136.387 36.7334 136.159 36.69C135.931 36.6466 135.715 36.5568 135.523 36.4263C134.313 35.7393 132.942 35.3904 131.551 35.4161C131.161 35.3913 130.77 35.4456 130.402 35.5758C130.034 35.706 129.695 35.9094 129.407 36.1738C129.257 36.2912 129.142 36.4471 129.073 36.6249C129.005 36.8028 128.986 36.9959 129.018 37.1837C129.05 37.3716 129.133 37.5472 129.257 37.6918C129.381 37.8363 129.542 37.9446 129.723 38.0049C130.409 38.3017 131.129 38.5138 131.866 38.6363C133.17 38.884 134.455 39.2216 135.712 39.6465C136.643 39.974 137.485 40.5145 138.171 41.2251C138.591 41.7171 138.902 42.2914 139.087 42.9112C139.272 43.531 139.325 44.1825 139.243 44.8241C139.175 45.8226 138.816 46.7792 138.211 47.5758C137.606 48.3724 136.781 48.9743 135.838 49.3072C134.419 49.8794 132.887 50.1171 131.362 50.0017C129.669 49.9621 128 49.5977 126.444 48.9283C125.9 48.6881 125.408 48.3451 124.994 47.9181C123.985 46.7815 124.805 45.203 126.129 44.8873C126.586 44.8164 127.053 44.9056 127.453 45.1398C128.671 45.8518 130.024 46.3032 131.425 46.4658C132.211 46.5734 133.012 46.4867 133.758 46.2132C134.077 46.1243 134.36 45.9354 134.564 45.674C134.768 45.4127 134.883 45.0927 134.893 44.761C134.921 44.5771 134.894 44.389 134.815 44.2204C134.737 44.0518 134.61 43.9104 134.451 43.8139C133.998 43.5397 133.51 43.3273 133.001 43.1825C131.803 42.8668 130.542 42.6142 129.344 42.3616C128.479 42.1791 127.649 41.8593 126.885 41.4145C124.048 39.836 124.048 35.9843 125.939 34.027C127.04 32.9221 128.488 32.2308 130.038 32.0696C130.514 31.9597 131 31.8963 131.488 31.8802Z" fill="black"/>
<path d="M102.863 40.72C102.8 43.435 102.106 45.645 100.341 47.4129C99.1064 48.6908 97.4912 49.5328 95.738 49.8123C93.6573 50.2519 91.4906 50.0083 89.559 49.1178C88.3113 48.547 87.2221 47.6788 86.3868 46.5891C85.5514 45.4994 84.9954 44.2214 84.7672 42.8668C84.4921 41.6498 84.4677 40.3895 84.6953 39.1627C84.923 37.936 85.398 36.7686 86.0912 35.7318C86.7434 34.7113 87.613 33.848 88.6377 33.2039C89.6624 32.5598 90.8168 32.1509 92.018 32.0065C93.9104 31.6777 95.8572 31.8968 97.6295 32.6379C98.9808 33.1882 100.164 34.0846 101.06 35.2371C101.957 36.3896 102.535 37.7578 102.737 39.2046C102.8 39.7792 102.8 40.3411 102.863 40.72ZM89.3068 40.9094C89.2797 41.7788 89.4523 42.6429 89.8112 43.435C90.1361 44.138 90.6467 44.7387 91.2877 45.1721C91.9288 45.6056 92.676 45.8553 93.4485 45.8943C94.221 45.9333 94.9895 45.7601 95.6708 45.3935C96.3521 45.0268 96.9204 44.4806 97.3143 43.8139C97.8761 42.9006 98.1684 41.8467 98.1572 40.774C98.1461 39.7013 97.832 38.6537 97.2512 37.7523C96.9098 37.207 96.4477 36.7475 95.9006 36.4095C95.3536 36.0715 94.7363 35.864 94.0964 35.8029C93.4565 35.7419 92.8112 35.829 92.2103 36.0575C91.6094 36.2861 91.069 36.6499 90.6309 37.1209C89.7174 38.1651 89.2429 39.5227 89.3068 40.9094Z" fill="black"/>
<path d="M143.468 36.2998H142.459C141.932 36.2998 141.427 36.0902 141.054 35.7172C140.682 35.3442 140.473 34.8383 140.473 34.3108C140.473 33.7833 140.682 33.2774 141.054 32.9044C141.427 32.5314 141.932 32.3219 142.459 32.3219H143.531V29.4174C143.609 28.8467 143.897 28.3258 144.339 27.9563C144.78 27.5868 145.343 27.3952 145.918 27.4188C146.493 27.4425 147.038 27.6797 147.448 28.0842C147.857 28.4888 148.102 29.0316 148.133 29.6068V32.3219H150.088C150.604 32.3777 151.078 32.6337 151.408 33.0349C151.738 33.4361 151.898 33.9508 151.853 34.4687C151.803 34.9588 151.578 35.4143 151.219 35.7509C150.859 36.0875 150.39 36.2825 149.899 36.2998H148.133V44.1987C148.111 44.5767 148.217 44.9511 148.435 45.2608C148.652 45.5705 148.968 45.7971 149.331 45.9036C149.58 45.9559 149.834 45.9771 150.088 45.9667C150.405 45.9374 150.724 45.9885 151.015 46.1154C151.307 46.2423 151.562 46.4408 151.757 46.6925C151.952 46.9443 152.08 47.2412 152.13 47.5558C152.18 47.8704 152.15 48.1925 152.042 48.4924C151.981 48.7075 151.877 48.908 151.736 49.0816C151.595 49.2553 151.421 49.3985 151.223 49.5026C150.509 49.8261 149.736 49.9981 148.953 50.0077C147.991 50.1087 147.018 49.9789 146.116 49.6289C145.449 49.3801 144.869 48.9438 144.444 48.3726C144.019 47.8014 143.767 47.1195 143.72 46.4087C143.667 46.0111 143.646 45.6099 143.657 45.209V36.7418C143.592 36.6886 143.541 36.6207 143.509 36.5438C143.476 36.4669 143.462 36.3832 143.468 36.2998Z" fill="black"/>
<path d="M74.4897 32.3218V29.7961C74.4794 29.5837 74.5007 29.3709 74.5528 29.1647C74.6809 28.6101 75.0095 28.1227 75.4752 27.7963C75.9408 27.4698 76.5106 27.3275 77.0748 27.3968C77.6235 27.4526 78.1324 27.7087 78.5046 28.1163C78.8767 28.5239 79.086 29.0545 79.0924 29.6067V32.2586H80.984C81.2417 32.2807 81.4925 32.3541 81.7215 32.4745C81.9506 32.595 82.1533 32.7601 82.3177 32.96C82.4822 33.16 82.6051 33.3909 82.6792 33.6391C82.7533 33.8873 82.7772 34.1479 82.7494 34.4054C82.7101 34.8997 82.4879 35.3615 82.1263 35.7002C81.7648 36.039 81.2899 36.2302 80.7948 36.2365H79.0294V43.8766C79.0191 44.0891 79.0403 44.3019 79.0924 44.508C79.1426 44.903 79.3388 45.2648 79.6423 45.5219C79.9458 45.7791 80.3345 45.913 80.7318 45.8972C81.0923 45.9043 81.4513 45.9466 81.8036 46.0234C82.1463 46.1427 82.4445 46.3637 82.6585 46.657C82.8725 46.9503 82.9922 47.302 83.0016 47.6651C83.0674 48.032 83.0103 48.4104 82.8393 48.7415C82.6683 49.0726 82.3928 49.3379 82.0558 49.4962C81.4954 49.7391 80.899 49.8884 80.2904 49.9382C79.4035 50.0327 78.5068 49.9685 77.6423 49.7488C76.8182 49.5661 76.074 49.1245 75.5183 48.4884C74.9625 47.8523 74.6242 47.055 74.5528 46.2129C74.5022 45.8574 74.4811 45.4984 74.4897 45.1395V36.1734H73.399C73.1379 36.1784 72.8785 36.1317 72.6355 36.0359C72.3926 35.9401 72.171 35.7971 71.9835 35.6151C71.7959 35.4332 71.6462 35.2159 71.5428 34.9758C71.4395 34.7357 71.3846 34.4775 71.3813 34.216C71.3811 33.6909 71.585 33.1863 71.9498 32.8092C72.3147 32.432 72.8118 32.2119 73.3359 32.1955C73.7108 32.3017 74.1008 32.3444 74.4897 32.3218Z" fill="black"/>
<path d="M66.6085 33.9636C67.7435 34.595 68.0587 35.6684 68.1848 36.805C68.4576 39.1306 68.542 41.4745 68.437 43.8137C68.437 45.1396 68.374 46.4656 68.2479 47.7916C68.1788 48.4076 68.0735 49.019 67.9326 49.6227C67.6804 50.6961 66.9238 51.1381 65.915 51.3906C64.8762 51.5889 63.8137 51.6314 62.7624 51.5169C60.8709 51.3275 58.9794 51.1381 57.0879 50.8855C55.1203 50.6332 53.1286 50.6332 51.1611 50.8855L44.7929 51.8326C44.0182 51.9273 43.2348 51.9273 42.4601 51.8326C42.0311 51.7732 41.6232 51.6099 41.2716 51.3568C40.92 51.1037 40.6354 50.7686 40.4424 50.3804C39.8919 49.4319 39.5481 48.3775 39.4336 47.2864C39.1402 45.4074 39.0346 43.5037 39.1184 41.6037C39.1746 39.4157 39.6231 37.2556 40.4424 35.2265C40.8142 34.4427 41.2354 33.6835 41.7035 32.9534C41.4779 32.7364 41.2672 32.5043 41.0729 32.2588C40.4466 31.6707 40.0708 30.8634 40.0238 30.0048C39.9768 29.1462 40.2623 28.3026 40.8207 27.6495C41.5655 26.6949 42.5132 25.9184 43.595 25.3764C46.103 23.9916 48.8745 23.1525 51.7285 22.9139C55.41 22.5307 59.1275 23.1207 62.5102 24.625C63.8894 25.2127 65.1499 26.0472 66.2302 27.0875C67.3504 28.1711 68.0251 29.6351 68.1218 31.1917C68.1988 31.6777 68.1324 32.1755 67.9308 32.6242C67.7292 33.0729 67.4011 33.4529 66.9868 33.7174C66.9238 33.9005 66.7977 33.9005 66.6085 33.9636ZM63.519 33.5848C63.5821 33.5216 63.5821 33.5216 63.6451 33.5216C64.0545 33.2952 64.3574 32.9154 64.4875 32.4656C64.6175 32.0158 64.564 31.5326 64.3387 31.1223C63.9378 30.2708 63.357 29.5168 62.6363 28.9123C61.5414 28.0799 60.3013 27.459 58.9794 27.0812C56.4129 26.2724 53.6967 26.0565 51.035 26.4498C49.4157 26.6606 47.8405 27.1296 46.3692 27.8389C45.3506 28.2931 44.5089 29.0695 43.9733 30.0489C43.7144 30.4912 43.629 31.0142 43.7339 31.5161C43.8388 32.0179 44.1264 32.4627 44.5407 32.7639C44.7009 32.8742 44.8488 33.0012 44.9821 33.1428C44.6668 33.6479 44.2885 34.0899 44.0363 34.595C43.4204 35.8457 43.0156 37.1898 42.8384 38.5729C42.5137 40.3635 42.4079 42.1869 42.5231 44.0031C42.5849 45.0075 42.8877 45.9822 43.4058 46.8444C43.6205 47.254 43.9357 47.6022 44.3217 47.8563C44.7078 48.1103 45.152 48.2619 45.6126 48.2967C46.0161 48.3174 46.4203 48.2747 46.8106 48.1704L51.035 47.2233C52.4846 46.9085 53.9773 46.8444 55.4485 47.0339C57.0248 47.2233 58.6011 47.4759 60.2404 47.6653C61.2003 47.8125 62.1753 47.8337 63.1407 47.7284C63.691 47.6859 64.21 47.4559 64.6115 47.0768C65.013 46.6977 65.2728 46.1923 65.3475 45.6448C65.693 43.6865 65.8199 41.6958 65.7258 39.7095C65.7034 38.4977 65.5554 37.2916 65.2845 36.1104C64.9692 35.037 64.572 34.1531 63.519 33.5848Z" fill="black"/>
</svg>
