<svg width="110" height="24" viewBox="0 0 110 24" fill="none" xmlns="http://www.w3.org/2000/svg">
<path fill-rule="evenodd" clip-rule="evenodd" d="M16.1281 16.212H1.5605C1.23754 16.212 0.927805 16.0852 0.699437 15.8595C0.471069 15.6338 0.342773 15.3277 0.342773 15.0086C0.342773 14.6894 0.471069 14.3833 0.699437 14.1576C0.927805 13.932 1.23754 13.8052 1.5605 13.8052H16.1281C16.4511 13.8052 16.7608 13.932 16.9892 14.1576C17.2175 14.3833 17.3458 14.6894 17.3458 15.0086C17.3458 15.3277 17.2175 15.6338 16.9892 15.8595C16.7608 16.0852 16.4511 16.212 16.1281 16.212Z" fill="black"/>
<path fill-rule="evenodd" clip-rule="evenodd" d="M13.0161 23.566C11.8411 23.5625 10.6723 23.3975 9.54332 23.0758C9.38933 23.0289 9.24618 22.9526 9.12204 22.8511C8.9979 22.7496 8.89521 22.6249 8.81983 22.4842C8.66758 22.2 8.63581 21.8677 8.7315 21.5604C8.82719 21.253 9.04251 20.9958 9.33008 20.8454C9.61766 20.6949 9.95393 20.6635 10.2649 20.7581C11.157 21.0249 12.0841 21.16 13.0161 21.1592C15.0116 21.1507 16.9517 20.5096 18.5511 19.3303C20.1504 18.1509 21.3246 16.4954 21.901 14.6074C22.0026 14.3041 22.2189 14.0513 22.5046 13.9018C22.7903 13.7523 23.1234 13.7177 23.4344 13.8051C23.7413 13.9056 23.9971 14.1193 24.1484 14.4016C24.2997 14.684 24.3347 15.0132 24.2462 15.3205C23.5245 17.7079 22.041 19.8007 20.0171 21.2867C17.9932 22.7727 15.5374 23.5723 13.0161 23.566Z" fill="black"/>
<path fill-rule="evenodd" clip-rule="evenodd" d="M24.4719 10.1058H9.90425C9.58129 10.1058 9.27156 9.979 9.04319 9.75331C8.81482 9.52763 8.68652 9.22154 8.68652 8.90238C8.68652 8.58322 8.81482 8.27713 9.04319 8.05145C9.27156 7.82577 9.58129 7.69898 9.90425 7.69898H24.4719C24.6319 7.69839 24.7905 7.72912 24.9386 7.78939C25.0866 7.84965 25.221 7.93827 25.3342 8.05014C25.4474 8.162 25.5371 8.2949 25.5981 8.44116C25.6591 8.58743 25.6902 8.74418 25.6896 8.90238C25.6838 9.21976 25.5536 9.52253 25.3265 9.74699C25.0994 9.97144 24.793 10.1001 24.4719 10.1058Z" fill="black"/>
<path fill-rule="evenodd" clip-rule="evenodd" d="M41.0237 11.4433L39.0393 11.0421C38.047 10.8193 37.5058 10.2399 37.5058 9.34846C37.5058 8.18963 38.498 7.38736 39.8962 7.38736C40.4633 7.36427 41.0224 7.52636 41.487 7.84858C41.9517 8.17081 42.296 8.63525 42.4669 9.17018C42.4853 9.23896 42.5193 9.30275 42.5661 9.35677C42.613 9.41079 42.6716 9.45366 42.7375 9.48217C42.8694 9.51893 43.0066 9.53399 43.1434 9.52674L44.1808 9.17018C44.2439 9.1511 44.3025 9.11955 44.3529 9.07742C44.4033 9.03529 44.4445 8.98347 44.4741 8.92511C44.5036 8.86675 44.5208 8.80306 44.5246 8.73793C44.5285 8.67279 44.5189 8.60755 44.4965 8.54619C44.2259 7.61021 43.2336 5.42627 39.8962 5.42627C37.4156 5.42627 35.2959 7.29822 35.2959 9.52674C35.2959 11.4433 36.5587 12.8695 38.6784 13.3152L40.5727 13.7163C41.7453 13.9392 42.3767 14.6523 42.3767 15.5437C42.3767 16.7026 41.3845 17.4157 39.8511 17.4157C39.161 17.4468 38.4831 17.2288 37.9437 16.8023C37.4043 16.3759 37.0403 15.7701 36.9195 15.098C36.8943 14.9687 36.8188 14.8542 36.7092 14.7792C36.5996 14.7043 36.4646 14.6747 36.3332 14.6969C36.2881 14.6969 36.2881 14.6969 36.2881 14.7415L35.1155 15.098C34.9971 15.139 34.8967 15.2189 34.831 15.3244C34.7652 15.4299 34.7383 15.5546 34.7547 15.6774C35.1155 17.5494 36.6489 19.5105 39.8962 19.5105C42.6473 19.5105 44.6769 17.7277 44.6769 15.41C44.6769 13.3598 43.3689 11.9335 41.0237 11.4433ZM52.8401 13.2261C52.8401 13.2706 52.8401 13.2706 52.795 13.3152C52.7499 13.3598 52.7499 13.3598 52.7048 13.3598H48.4654C48.4202 13.3598 48.4203 13.3152 48.3752 13.3152C48.33 13.3152 48.33 13.2706 48.33 13.2261C48.4294 12.7241 48.7064 12.2735 49.1113 11.955C49.5163 11.6365 50.0227 11.4709 50.54 11.4878C51.8028 11.4878 52.6597 12.1564 52.8401 13.2261ZM50.54 9.52674C48.33 9.52674 46.0299 11.3541 46.0299 14.4295C46.0048 15.1038 46.1199 15.7761 46.3681 16.4047C46.6164 17.0333 46.9925 17.605 47.4731 18.0842C47.9057 18.5105 48.4193 18.848 48.9843 19.0775C49.5493 19.3069 50.1546 19.4238 50.7655 19.4213C51.6462 19.4546 52.516 19.2204 53.2579 18.7503C53.9998 18.2801 54.578 17.5966 54.9148 16.7917C54.9601 16.6617 54.9601 16.5205 54.9148 16.3906C54.8859 16.3254 54.8426 16.2675 54.7879 16.2212C54.7332 16.1749 54.6687 16.1413 54.5991 16.1231L53.652 15.8112C53.5318 15.7729 53.4017 15.779 53.2856 15.8281C53.1696 15.8773 53.0754 15.9662 53.0205 16.0786C52.8481 16.5232 52.5362 16.9015 52.1304 17.1582C51.7246 17.4149 51.2462 17.5363 50.7655 17.5048C50.1502 17.5145 49.5537 17.2954 49.0943 16.8909C48.6348 16.4864 48.3459 15.926 48.2849 15.3209C48.2849 15.2763 48.2849 15.2763 48.33 15.2317C48.3544 15.2075 48.3861 15.1919 48.4202 15.1872H54.5991C54.7303 15.186 54.8558 15.134 54.9486 15.0423C55.0414 14.9506 55.094 14.8266 55.0952 14.6969V14.4295C55.0952 11.3987 53.3362 9.52674 50.54 9.52674ZM61.0485 16.8363C59.5602 16.8363 58.6582 15.8112 58.6582 14.2066C58.6582 12.6021 59.6053 11.577 61.0485 11.577C62.4917 11.577 63.4389 12.6467 63.4389 14.2066C63.4389 15.7666 62.4466 16.8363 61.0485 16.8363ZM64.9723 9.83873H63.8448C63.7762 9.8404 63.7088 9.85571 63.6464 9.88374C63.584 9.91178 63.5279 9.95197 63.4816 10.0019C63.4353 10.0518 63.3997 10.1105 63.3768 10.1743C63.354 10.2382 63.3444 10.306 63.3487 10.3736C63.3439 10.4074 63.328 10.4387 63.3036 10.4627C63.2585 10.4627 63.2585 10.5073 63.2134 10.4627C62.5391 9.92169 61.6912 9.63709 60.823 9.66045C58.2974 9.66045 56.4933 11.577 56.4933 14.2066C56.4933 16.8363 58.2974 18.7528 60.823 18.7528C61.6987 18.7745 62.551 18.4725 63.2134 17.906C63.2368 17.8805 63.2689 17.8646 63.3036 17.8614C63.3487 17.8614 63.3487 17.906 63.3487 17.9505V18.3517C63.3487 20.179 62.5368 21.0259 60.7779 21.0259C60.2676 21.0421 59.7676 20.8818 59.3641 20.5726C58.9606 20.2634 58.6791 19.8247 58.568 19.3322C58.5196 19.2116 58.4422 19.1046 58.3425 19.0202C58.2841 18.9796 58.2162 18.9542 58.1453 18.9464C58.0743 18.9387 58.0025 18.9487 57.9365 18.9756L56.8541 19.1985C56.7168 19.2284 56.5969 19.3108 56.5209 19.4277C56.4448 19.5446 56.4187 19.6866 56.4482 19.8225C56.8541 21.6944 58.568 22.987 60.7779 22.987C62.4015 22.987 63.6644 22.4967 64.4762 21.5162C65.1915 20.5995 65.5586 19.4638 65.5135 18.3071V10.329C65.5118 10.2613 65.4963 10.1946 65.468 10.1329C65.4396 10.0713 65.3989 10.0159 65.3484 9.97013C65.2979 9.92436 65.2385 9.88914 65.1739 9.86656C65.1093 9.84398 65.0407 9.83451 64.9723 9.83873ZM78.2771 9.57131C77.7152 9.54178 77.1546 9.64813 76.6437 9.88113C76.1329 10.1141 75.6873 10.4668 75.3455 10.9084C75.3004 10.953 75.3004 10.953 75.2553 10.953C75.2433 10.953 75.2319 10.9483 75.2234 10.9399C75.215 10.9316 75.2102 10.9202 75.2102 10.9084C74.918 10.4806 74.5204 10.1334 74.0549 9.89947C73.5893 9.66554 73.0712 9.5526 72.5492 9.57131C71.6884 9.55734 70.8529 9.85904 70.204 10.4181C70.1862 10.435 70.1648 10.4477 70.1414 10.4554C70.118 10.4631 70.0932 10.4656 70.0687 10.4627C70.0236 10.4181 70.0236 10.4181 70.0236 10.3736C70.0307 10.3075 70.0228 10.2406 70.0003 10.178C69.9779 10.1153 69.9416 10.0584 69.894 10.0114C69.8465 9.96435 69.7888 9.92845 69.7254 9.90629C69.662 9.88414 69.5944 9.87628 69.5275 9.8833H68.4C68.2687 9.88446 68.1432 9.93649 68.0505 10.0282C67.9577 10.1199 67.905 10.2439 67.9039 10.3736V18.6637C67.8967 18.7298 67.9047 18.7966 67.9271 18.8593C67.9495 18.9219 67.9859 18.9789 68.0334 19.0259C68.081 19.0729 68.1386 19.1088 68.202 19.1309C68.2654 19.1531 68.3331 19.1609 68.4 19.1539H69.5275C69.6587 19.1528 69.7842 19.1007 69.877 19.009C69.9698 18.9174 70.0224 18.7933 70.0236 18.6637V13.5826C70.0236 12.3347 70.7903 11.5324 71.9178 11.5324C73.4062 11.5324 73.6317 12.6912 73.6317 13.3598V18.6637C73.6246 18.7298 73.6325 18.7966 73.6549 18.8593C73.6774 18.9219 73.7137 18.9789 73.7612 19.0259C73.8088 19.0729 73.8664 19.1088 73.9298 19.1309C73.9933 19.1531 74.0609 19.1609 74.1278 19.1539H75.2553C75.3865 19.1528 75.512 19.1007 75.6048 19.009C75.6976 18.9174 75.7502 18.7933 75.7514 18.6637V13.5381C75.7514 12.3347 76.5181 11.4878 77.6457 11.4878C79.134 11.4878 79.3595 12.6467 79.3595 13.3152V18.6191C79.3524 18.6852 79.3603 18.752 79.3828 18.8147C79.4052 18.8774 79.4415 18.9343 79.4891 18.9813C79.5366 19.0283 79.5942 19.0642 79.6577 19.0864C79.7211 19.1085 79.7887 19.1164 79.8556 19.1094H80.9831C81.05 19.1164 81.1176 19.1085 81.1811 19.0864C81.2445 19.0642 81.3021 19.0283 81.3497 18.9813C81.3972 18.9343 81.4335 18.8774 81.456 18.8147C81.4784 18.752 81.4863 18.6852 81.4792 18.6191V13.1369C81.5694 10.6856 79.9007 9.57131 78.2771 9.57131ZM85.8089 13.3598C85.7638 13.3598 85.7638 13.3152 85.7187 13.3152C85.6736 13.3152 85.6736 13.2706 85.6736 13.2261C85.773 12.7241 86.0499 12.2735 86.4549 11.955C86.8598 11.6365 87.3663 11.4709 87.8836 11.4878C89.1013 11.4878 89.9582 12.1564 90.1386 13.2261C90.1386 13.2706 90.1386 13.2706 90.0935 13.3152C90.0484 13.3598 90.0484 13.3598 90.0033 13.3598H85.8089ZM87.8836 9.57131C85.6736 9.57131 83.3735 11.3987 83.3735 14.474C83.3483 15.1484 83.4635 15.8207 83.7117 16.4493C83.9599 17.0779 84.336 17.6495 84.8167 18.1288C85.2517 18.5488 85.7666 18.8793 86.3318 19.1012C86.8969 19.3231 87.501 19.4319 88.1091 19.4213C88.9885 19.4483 89.8556 19.2116 90.5962 18.7422C91.3368 18.2728 91.9163 17.5928 92.2584 16.7917C92.3037 16.6617 92.3037 16.5205 92.2584 16.3906C92.2295 16.3254 92.1861 16.2675 92.1315 16.2212C92.0768 16.1749 92.0122 16.1413 91.9426 16.1231L90.9955 15.8112C90.8756 15.7677 90.7435 15.7712 90.6261 15.821C90.5087 15.8707 90.415 15.9628 90.3641 16.0786C90.1917 16.5232 89.8798 16.9015 89.474 17.1582C89.0681 17.4149 88.5898 17.5363 88.1091 17.5048C87.4938 17.5145 86.8973 17.2954 86.4378 16.8909C85.9784 16.4864 85.6895 15.926 85.6285 15.3209C85.6285 15.2763 85.6285 15.2763 85.6736 15.2317C85.6979 15.2075 85.7296 15.1919 85.7638 15.1872H91.9426C92.0739 15.186 92.1994 15.134 92.2921 15.0423C92.3849 14.9506 92.4376 14.8266 92.4388 14.6969V14.4295C92.3937 11.3987 90.6798 9.52674 87.8836 9.57131ZM99.0686 9.57131C98.6268 9.55934 98.1872 9.63612 97.7763 9.79701C97.3654 9.95789 96.9918 10.1995 96.6782 10.5073C96.6331 10.5519 96.6331 10.5519 96.5429 10.5519C96.4527 10.5519 96.4978 10.5073 96.4978 10.4627V10.4181C96.5049 10.352 96.497 10.2852 96.4746 10.2225C96.4522 10.1599 96.4158 10.1029 96.3683 10.0559C96.3207 10.0089 96.2631 9.97302 96.1997 9.95087C96.1363 9.92871 96.0686 9.92085 96.0017 9.92787H94.9193C94.8524 9.92085 94.7848 9.92871 94.7214 9.95087C94.6579 9.97302 94.6003 10.0089 94.5528 10.0559C94.5052 10.1029 94.4689 10.1599 94.4465 10.2225C94.424 10.2852 94.4161 10.352 94.4232 10.4181V18.7082C94.4161 18.7743 94.424 18.8412 94.4465 18.9038C94.4689 18.9665 94.5052 19.0234 94.5528 19.0704C94.6003 19.1175 94.6579 19.1533 94.7214 19.1755C94.7848 19.1977 94.8524 19.2055 94.9193 19.1985H96.0468C96.1137 19.2055 96.1814 19.1977 96.2448 19.1755C96.3082 19.1533 96.3658 19.1175 96.4134 19.0704C96.4609 19.0234 96.4973 18.9665 96.5197 18.9038C96.5421 18.8412 96.55 18.7743 96.5429 18.7082V13.8055C96.5429 12.7358 97.0391 11.5324 98.4372 11.5324C99.7 11.5324 100.331 12.201 100.331 13.5826V18.6191C100.324 18.6852 100.332 18.752 100.355 18.8147C100.377 18.8774 100.413 18.9343 100.461 18.9813C100.509 19.0283 100.566 19.0642 100.63 19.0864C100.693 19.1085 100.761 19.1164 100.828 19.1094H101.955C102.022 19.1164 102.09 19.1085 102.153 19.0864C102.216 19.0642 102.274 19.0283 102.322 18.9813C102.369 18.9343 102.405 18.8774 102.428 18.8147C102.45 18.752 102.458 18.6852 102.451 18.6191V13.3152C102.496 10.9976 101.188 9.57131 99.0686 9.57131ZM107.773 11.7998H109.126C109.193 11.8068 109.261 11.799 109.324 11.7768C109.387 11.7547 109.445 11.7188 109.493 11.6718C109.54 11.6248 109.577 11.5678 109.599 11.5052C109.621 11.4425 109.629 11.3757 109.622 11.3096V10.329C109.629 10.2629 109.621 10.1961 109.599 10.1334C109.577 10.0707 109.54 10.0138 109.493 9.96678C109.445 9.91978 109.387 9.88388 109.324 9.86172C109.261 9.83957 109.193 9.83171 109.126 9.83873H107.773C107.728 9.83873 107.638 9.79416 107.638 9.74959V7.56565C107.645 7.49954 107.637 7.4327 107.614 7.37003C107.592 7.30735 107.556 7.25043 107.508 7.20342C107.461 7.15642 107.403 7.12052 107.34 7.09837C107.276 7.07621 107.209 7.06835 107.142 7.07537H106.149C106.083 7.06835 106.015 7.07621 105.951 7.09837C105.888 7.12052 105.83 7.15642 105.783 7.20342C105.735 7.25043 105.699 7.30735 105.677 7.37003C105.654 7.4327 105.646 7.49954 105.653 7.56565V8.72447C105.671 8.88096 105.653 9.03944 105.601 9.18812C105.548 9.3368 105.462 9.47184 105.35 9.5832C105.237 9.69457 105.1 9.77939 104.95 9.83134C104.799 9.8833 104.639 9.90106 104.481 9.8833H104.3C104.233 9.87628 104.166 9.88414 104.102 9.90629C104.039 9.92845 103.981 9.96435 103.934 10.0114C103.886 10.0584 103.85 10.1153 103.827 10.178C103.805 10.2406 103.797 10.3075 103.804 10.3736V11.3541C103.797 11.4202 103.805 11.4871 103.827 11.5497C103.85 11.6124 103.886 11.6693 103.934 11.7163C103.981 11.7633 104.039 11.7992 104.102 11.8214C104.166 11.8436 104.233 11.8514 104.3 11.8444H105.383C105.428 11.8444 105.518 11.889 105.518 11.9335V16.5243C105.518 18.2179 106.555 19.2431 108.269 19.2431C108.602 19.249 108.935 19.2191 109.261 19.1539C109.374 19.1276 109.475 19.0653 109.548 18.9767C109.622 18.8881 109.663 18.7781 109.667 18.6637V17.7722C109.674 17.7061 109.666 17.6393 109.644 17.5766C109.622 17.514 109.585 17.457 109.538 17.41C109.49 17.363 109.433 17.3271 109.369 17.305C109.306 17.2828 109.238 17.275 109.171 17.282H109.126C108.991 17.282 108.901 17.3265 108.81 17.3265C108.044 17.3265 107.728 17.0591 107.728 16.3014V11.9335C107.638 11.8444 107.728 11.7998 107.773 11.7998Z" fill="black"/>
<path fill-rule="evenodd" clip-rule="evenodd" d="M2.95846 10.1058C2.79837 10.1063 2.63976 10.0756 2.49175 10.0154C2.34374 9.95509 2.20926 9.86647 2.09606 9.7546C1.98287 9.64274 1.8932 9.50984 1.83221 9.36357C1.77122 9.21731 1.74013 9.06056 1.74073 8.90236C1.74073 8.76865 1.78583 8.67951 1.78583 8.54579C2.52075 6.1697 4.00899 4.08994 6.03102 2.61333C8.05304 1.13672 10.5018 0.341461 13.016 0.344859C14.191 0.348343 15.3597 0.513348 16.4887 0.835132C16.7924 0.940122 17.0447 1.15456 17.1953 1.43555C17.3458 1.71653 17.3834 2.04332 17.3005 2.35052C17.1943 2.65062 16.9773 2.89999 16.693 3.04874C16.4087 3.1975 16.078 3.23466 15.7671 3.15279C14.875 2.88603 13.948 2.75086 13.016 2.75165C11.0214 2.73796 9.07631 3.3652 7.4738 4.53888C5.87129 5.71255 4.69813 7.36909 4.13108 9.25892C4.04757 9.50218 3.89015 9.71404 3.68028 9.8656C3.47042 10.0172 3.21834 10.101 2.95846 10.1058Z" fill="black"/>
<path fill-rule="evenodd" clip-rule="evenodd" d="M21.4498 4.31155C21.4498 4.54956 21.3784 4.78223 21.2446 4.98013C21.1107 5.17802 20.9206 5.33227 20.6981 5.42335C20.4755 5.51443 20.2307 5.53826 19.9945 5.49183C19.7583 5.44539 19.5413 5.33078 19.371 5.16248C19.2007 4.99419 19.0847 4.77976 19.0377 4.54632C18.9907 4.31289 19.0149 4.07092 19.107 3.85103C19.1992 3.63114 19.3553 3.44319 19.5555 3.31096C19.7558 3.17873 19.9912 3.10815 20.232 3.10815C20.5532 3.11387 20.8596 3.2425 21.0867 3.46695C21.3138 3.6914 21.444 3.99418 21.4498 4.31155ZM7.01748 19.5992C7.01748 19.8372 6.94606 20.0699 6.81226 20.2677C6.67845 20.4656 6.48827 20.6199 6.26576 20.711C6.04325 20.8021 5.79841 20.8259 5.56219 20.7795C5.32597 20.733 5.109 20.6184 4.9387 20.4501C4.76839 20.2818 4.65242 20.0674 4.60543 19.8339C4.55844 19.6005 4.58256 19.3585 4.67473 19.1387C4.76689 18.9188 4.92297 18.7308 5.12322 18.5986C5.32348 18.4664 5.55891 18.3958 5.79976 18.3958C5.95984 18.3952 6.11845 18.4259 6.26646 18.4862C6.41447 18.5464 6.54895 18.6351 6.66215 18.7469C6.77534 18.8588 6.86502 18.9917 6.926 19.138C6.98699 19.2842 7.01808 19.441 7.01748 19.5992Z" fill="black"/>
</svg>
