<?xml version="1.0" encoding="utf-8"?>
<!-- Generator: Adobe Illustrator 22.1.0, SVG Export Plug-In . SVG Version: 6.00 Build 0)  -->
<svg version="1.1" id="Слой_1" xmlns="http://www.w3.org/2000/svg" xmlns:xlink="http://www.w3.org/1999/xlink" x="0px" y="0px"
	 viewBox="0 0 72 72" style="enable-background:new 0 0 72 72;" xml:space="preserve">
<style type="text/css">
	.st0{fill:#2945FF;}
	.st1{fill:#FFFFFF;}
</style>
<g id="XMLID_1_">
	<g>
		<path class="st0" d="M50.3,34.7C50.7,35,51,35.5,51,36s-0.3,1-0.7,1.3l-21,13.5c-0.2,0.2-0.5,0.2-0.8,0.2c-0.3,0-0.5-0.1-0.7-0.2
			C27.3,50.5,27,50,27,49.5v-27c0-0.5,0.3-1,0.8-1.3c0.5-0.3,1.1-0.2,1.5,0.1L50.3,34.7z"/>
		<path class="st1" d="M36,0c19.8,0,36,16.1,36,36S55.8,72,36,72S0,55.8,0,36S16.1,0,36,0z M51,36c0-0.5-0.3-1-0.7-1.3l-21-13.5
			c-0.5-0.3-1-0.3-1.5-0.1C27.3,21.5,27,22,27,22.5v27c0,0.5,0.3,1,0.8,1.3c0.2,0.1,0.5,0.2,0.7,0.2c0.3,0,0.6-0.1,0.8-0.2l21-13.5
			C50.7,37,51,36.5,51,36z"/>
	</g>
	<g>
	</g>
</g>
</svg>
