<svg width="24" height="24" viewBox="0 0 24 24" fill="none" xmlns="http://www.w3.org/2000/svg">
<path fill-rule="evenodd" clip-rule="evenodd" d="M16.455 7.45502C16.6649 7.24693 16.9483 7.12982 17.2439 7.129C17.5395 7.12819 17.8235 7.24373 18.0346 7.45067C18.2456 7.6576 18.3668 7.93928 18.3718 8.23483C18.3769 8.53037 18.2654 8.81602 18.0615 9.03002L12.0735 16.515C11.9706 16.6259 11.8464 16.7148 11.7083 16.7766C11.5702 16.8383 11.4211 16.8716 11.2699 16.8744C11.1186 16.8772 10.9684 16.8495 10.8281 16.7929C10.6879 16.7363 10.5604 16.652 10.4535 16.545L6.48599 12.576C6.37546 12.473 6.28681 12.3488 6.22532 12.2108C6.16383 12.0728 6.13077 11.9239 6.1281 11.7728C6.12544 11.6218 6.15323 11.4717 6.20981 11.3316C6.26639 11.1915 6.35061 11.0643 6.45743 10.9575C6.56426 10.8506 6.69151 10.7664 6.8316 10.7098C6.97168 10.6533 7.12172 10.6255 7.27278 10.6281C7.42383 10.6308 7.5728 10.6639 7.7108 10.7254C7.8488 10.7868 7.973 10.8755 8.07599 10.986L11.217 14.1255L16.4265 7.48802C16.4358 7.4764 16.4458 7.46538 16.4565 7.45502H16.455Z" fill="black"/>
</svg>
